<svg version="1.1" id="Layer_1" xmlns="http://www.w3.org/2000/svg" xmlns:xlink="http://www.w3.org/1999/xlink" x="0px" y="0px"
	 width="100%" viewBox="0 0 78 61" enable-background="new 0 0 78 61" xml:space="preserve">
<path fill="#fff" opacity="0.000000" stroke="none" 
	d="
M48.000000,62.000000 
	C32.000004,62.000000 16.500008,62.000000 1.000008,62.000000 
	C1.000005,41.666676 1.000005,21.333351 1.000003,1.000019 
	C26.999985,1.000013 52.999969,1.000013 78.999969,1.000006 
	C78.999977,21.333315 78.999977,41.666630 78.999985,61.999969 
	C68.833336,62.000000 58.666668,62.000000 48.000000,62.000000 
M39.891827,52.785465 
	C42.986530,52.785465 46.081238,52.785465 49.622921,52.785465 
	C49.622921,47.427521 49.622921,42.339886 49.622921,35.577751 
	C52.523003,37.818897 54.715046,38.919357 56.045994,40.673260 
	C58.342411,43.699440 59.896008,47.288559 62.186039,50.320679 
	C63.175945,51.631367 65.140953,52.619804 66.808960,52.906982 
	C69.305367,53.336792 71.930550,53.018673 75.473076,53.018673 
	C70.765381,46.105946 66.637733,40.044968 62.453159,33.900383 
	C62.837723,33.672939 63.715748,33.209618 64.535561,32.659542 
	C69.207001,29.525129 70.974594,25.150793 70.001518,19.779497 
	C69.048836,14.520758 65.285034,11.844142 60.692299,11.429434 
	C53.691978,10.797327 46.592449,11.263838 39.361629,11.263838 
	C39.361629,25.139246 39.361629,38.581238 39.891827,52.785465 
M18.732737,25.506847 
	C18.732737,20.731434 18.732737,15.956021 18.732737,11.228750 
	C15.004407,11.228750 11.907275,11.228750 8.691532,11.228750 
	C8.691532,25.233185 8.691532,38.976532 8.691532,52.849358 
	C17.234259,52.849358 25.504807,52.849358 33.926437,52.849358 
	C33.926437,50.225124 33.926437,47.787422 33.926437,44.898117 
	C28.762831,44.898117 23.839584,44.898117 19.006750,44.898117 
	C18.870739,44.126385 18.766197,43.806709 18.765163,43.486702 
	C18.746857,37.826084 18.741156,32.165424 18.732737,25.506847 
z"/>
<path fill="#fff" opacity="1.000000" stroke="none" 
	d="
M39.626728,52.404350 
	C39.361629,38.581238 39.361629,25.139246 39.361629,11.263838 
	C46.592449,11.263838 53.691978,10.797327 60.692299,11.429434 
	C65.285034,11.844142 69.048836,14.520758 70.001518,19.779497 
	C70.974594,25.150793 69.207001,29.525129 64.535561,32.659542 
	C63.715748,33.209618 62.837723,33.672939 62.453159,33.900383 
	C66.637733,40.044968 70.765381,46.105946 75.473076,53.018673 
	C71.930550,53.018673 69.305367,53.336792 66.808960,52.906982 
	C65.140953,52.619804 63.175945,51.631367 62.186039,50.320679 
	C59.896008,47.288559 58.342411,43.699440 56.045994,40.673260 
	C54.715046,38.919357 52.523003,37.818897 49.622921,35.577751 
	C49.622921,42.339886 49.622921,47.427521 49.622921,52.785465 
	C46.081238,52.785465 42.986530,52.785465 39.626728,52.404350 
M49.456890,25.271536 
	C49.547894,26.690168 49.638897,28.108801 49.831966,31.118462 
	C53.451279,29.327379 56.587654,28.410799 58.743103,26.427921 
	C59.749809,25.501812 59.665115,21.407623 58.666931,20.679319 
	C56.285755,18.941935 53.067604,18.351667 49.456932,17.030888 
	C49.456932,20.456718 49.456932,22.421888 49.456890,25.271536 
z"/>
<path fill="#fff" opacity="1.000000" stroke="none" 
	d="
M18.732733,26.005812 
	C18.741156,32.165424 18.746857,37.826084 18.765163,43.486702 
	C18.766197,43.806709 18.870739,44.126385 19.006750,44.898117 
	C23.839584,44.898117 28.762831,44.898117 33.926437,44.898117 
	C33.926437,47.787422 33.926437,50.225124 33.926437,52.849358 
	C25.504807,52.849358 17.234259,52.849358 8.691532,52.849358 
	C8.691532,38.976532 8.691532,25.233185 8.691532,11.228750 
	C11.907275,11.228750 15.004407,11.228750 18.732737,11.228750 
	C18.732737,15.956021 18.732737,20.731434 18.732733,26.005812 
z"/>
<path fill="#fff" opacity="0.000000" stroke="none" 
	d="
M49.456909,24.829298 
	C49.456932,22.421888 49.456932,20.456718 49.456932,17.030888 
	C53.067604,18.351667 56.285755,18.941935 58.666931,20.679319 
	C59.665115,21.407623 59.749809,25.501812 58.743103,26.427921 
	C56.587654,28.410799 53.451279,29.327379 49.831966,31.118462 
	C49.638897,28.108801 49.547894,26.690168 49.456909,24.829298 
z"/>
</svg>